<svg width="225" height="154" viewBox="0 0 225 154" fill="none" xmlns="http://www.w3.org/2000/svg">
<path fill-rule="evenodd" clip-rule="evenodd" d="M67.7694 140.764C102.806 144.77 138.787 134.943 157.76 132.902C163.127 132.335 167.133 132.713 169.401 134.452C172.84 137.097 172.765 140.386 169.93 146.32C167.02 152.367 170.837 155.088 177.527 152.783C194.724 146.849 229.533 115.781 224.469 71.0313C219.328 25.6014 176.884 -3.9545 112.632 0.429753C47.3221 4.92739 4.95364 38.414 0.304817 76.5494C-2.56762 100.285 14.478 134.641 67.7694 140.726V140.764Z" fill="#753C94"/>
<path fill-rule="evenodd" clip-rule="evenodd" d="M65.0103 80.1778L57.7159 67.8187L50.4592 80.1778H65.0103ZM81.8292 91.8187C83.0009 93.8219 82.3206 96.3542 80.3174 97.5258C80.2796 97.5636 80.2418 97.5636 80.2041 97.5636C79.5615 97.9416 78.8056 98.1305 78.0497 98.1305C76.5001 98.1305 75.1017 97.3368 74.308 96.014L69.9615 88.6061H45.4702L41.0859 96.014C39.9143 98.0172 37.2686 98.7353 35.1899 97.5636C33.1867 96.4675 32.4308 93.9353 33.5269 91.9321C33.5647 91.8943 33.5647 91.8565 33.6025 91.8187L39.1584 82.4077V82.3699L53.9363 57.2738C54.6922 55.951 56.1285 55.1573 57.6781 55.1573C59.2277 55.1573 60.6639 55.951 61.4198 57.2738L76.1978 82.3699L76.2355 82.4455L81.7915 91.8565L81.8292 91.8187ZM113.313 76.5116L128.015 62.1494C129.678 60.562 129.716 57.9164 128.128 56.2912C128.091 56.2534 128.053 56.2156 128.015 56.1778C126.314 54.5148 123.593 54.5148 121.892 56.1778L107.19 70.54L92.4875 56.1778C90.7867 54.5148 88.0655 54.5148 86.3647 56.1778C84.7017 57.7652 84.6639 60.4109 86.2891 62.0361C86.3269 62.0738 86.3647 62.1116 86.3647 62.1116L101.067 76.4738L86.3647 90.8361C84.7017 92.4235 84.7017 95.0691 86.2891 96.7321C86.3269 96.7699 86.3269 96.7699 86.3647 96.8077C87.234 97.6392 88.33 98.055 89.4261 98.055C90.56 98.055 91.656 97.6392 92.4875 96.8077L107.19 82.4455L121.892 96.8077C122.724 97.6392 123.858 98.055 124.954 98.055C126.088 98.055 127.184 97.6014 128.015 96.8077C129.678 95.2203 129.716 92.6124 128.128 90.9494C128.091 90.9116 128.053 90.8738 128.015 90.8361L113.313 76.4738V76.5116ZM137.539 54.9683C135.158 54.9683 133.231 56.8581 133.231 59.2014V93.9731C133.231 96.3164 135.158 98.2061 137.539 98.2061C139.921 98.2061 141.848 96.3164 141.848 93.9731V59.2014C141.848 56.8959 139.921 54.9683 137.539 54.9683ZM192.721 85.2424C192.721 92.3479 186.787 98.1305 179.492 98.1305H151.637C149.256 98.1305 147.328 96.2408 147.328 93.8975C147.328 91.5542 149.256 89.6644 151.637 89.6644H179.492C182.025 89.6644 184.065 87.6613 184.065 85.2046C184.065 82.7479 182.025 80.7447 179.492 80.7447H159.347C152.053 80.7447 146.119 74.962 146.119 67.8565C146.119 60.751 152.053 54.9683 159.347 54.9683H187.089C189.47 54.9683 191.398 56.8581 191.398 59.2014C191.398 61.5447 189.47 63.4345 187.089 63.4345H159.347C156.815 63.4345 154.774 65.4376 154.774 67.8943C154.774 70.351 156.815 72.3542 159.347 72.3542H179.492C186.787 72.3542 192.721 78.1368 192.721 85.2424Z" fill="white"/>
</svg>
