<svg width="30" height="37" viewBox="0 0 30 37" fill="none" xmlns="http://www.w3.org/2000/svg">
<rect x="3.72093" y="1" width="24.6744" height="35" rx="3" stroke="#2E5392" stroke-width="2"/>
<g clip-path="url(#clip0_58_15)">
<path d="M21.0906 27.5021C20.312 27.3857 19.2602 26.9406 17.7591 25.7807C15.9342 24.3661 14.5477 23.1047 12.862 20.8328C11.2373 18.6386 10.4925 17.2638 9.54544 14.7023C8.47528 11.8099 8.93518 10.4464 9.3047 9.88945C9.74515 9.22365 10.3014 8.86918 11.0011 8.53943C11.3979 8.35666 11.8107 8.21084 12.2342 8.10383C12.2767 8.09264 12.3162 8.08183 12.3516 8.07201C12.5623 8.01257 12.8816 7.92285 13.2391 8.12309C13.4778 8.25583 13.6746 8.48385 13.9758 8.88572C14.5938 9.70889 15.3464 11.449 15.5949 12.2855C15.7615 12.8491 15.8719 13.2212 15.814 13.6114C15.7457 14.0682 15.4633 14.3861 15.1276 14.7246C15.0647 14.7881 15.0027 14.8486 14.9425 14.9073C14.5793 15.2609 14.4955 15.3662 14.5086 15.5786C14.5357 16.0056 15.0151 17.3361 15.9427 18.5869C16.8704 19.8377 17.9734 20.6379 18.3755 20.7885C18.5832 20.8665 18.7113 20.8147 19.1699 20.5619C19.2357 20.5256 19.3033 20.488 19.3737 20.4508C19.8462 20.198 20.2156 20.0244 20.6615 20.0911L20.6639 20.0914C21.0521 20.1494 21.3592 20.3674 21.8682 20.7274C22.5321 21.1969 24.0259 22.4197 24.6367 23.2528C24.9339 23.6577 25.0953 23.9119 25.1529 24.1786C25.2397 24.5803 25.0599 24.858 24.942 25.0443C24.9223 25.0752 24.9005 25.1091 24.8773 25.1468C24.6499 25.5197 24.3887 25.8708 24.097 26.1958C23.5782 26.7666 23.0751 27.1935 22.308 27.4202C21.9136 27.5394 21.4974 27.5674 21.0906 27.5021Z" fill="#2E5392"/>
</g>
<path d="M1 12.907H6.16279" stroke="#2E5392" stroke-linecap="round"/>
<path d="M1 18.9302H6.16279" stroke="#2E5392" stroke-linecap="round"/>
<path d="M1 24.9535H6.16279" stroke="#2E5392" stroke-linecap="round"/>
<defs>
<clipPath id="clip0_58_15">
<rect width="20.6512" height="20.6512" fill="white" transform="translate(8.35481 6.02325) rotate(8.5)"/>
</clipPath>
</defs>
</svg>
