<?xml version="1.0" encoding="utf-8"?>
<!-- Generator: Adobe Illustrator 26.0.3, SVG Export Plug-In . SVG Version: 6.00 Build 0)  -->
<svg version="1.0" id="katman_1" xmlns="http://www.w3.org/2000/svg" xmlns:xlink="http://www.w3.org/1999/xlink" x="0px" y="0px"
	 viewBox="0 0 600 450" style="enable-background:new 0 0 600 450;" xml:space="preserve">
<style type="text/css">
	.st0{fill:#E2261D;}
	.st1{fill:#FFFFFF;}
</style>
<path class="st0" d="M301.7,43.9h150.1c6.6,0,12.8,1.1,18.2,5.1c7.4,4.9,11.9,13.2,12.1,22.1c0.1,17,0.1,33.9,0.1,50.7l0.1,253.6
	c0,5.2-0.1,10.2-2.5,14.9c-4,8.8-12.1,14.9-21.6,16.1c-2.5,0.4-5.1,0.5-7.6,0.5l-295.4-0.1c-3.3,0-6.8-0.2-10.1-0.4
	c-15.4-1.3-26.8-14.7-25.6-30.1c0-100.8,0.1-201.4,0-302.3c0-8.8,2.5-16.3,9.1-22.4c4.8-4.6,11.1-7.3,17.7-7.5
	c4.4-0.1,8.9-0.1,13.3-0.1L301.7,43.9L301.7,43.9z"/>
<path class="st1" d="M207.9,98h-28.2c-4.9,0-6,1.1-6.1,5.8V119c0,4.4,1.2,5.5,5.4,5.6l35.4,0.5c6.5,0.1,12.9,0,19.3,0.1
	c8.4,0.1,15.9,3,22.6,8.1c15.4,11.9,16.7,35.4,3.7,49.2c-7.1,7.7-17.1,12.1-27.6,11.9c-17.6,0.1-35.1,0-52.7-0.1
	c-5,0-6.1,1.2-6.1,6.2v15.2c0.1,4.6,1.5,6,6.1,6c16,0,31.9,0.1,47.8,0c4.3,0,8.6-0.3,12.8-0.8c15.4-1.5,29.6-9.1,39.3-21.3
	c15.2-17.9,18.7-42.9,9.1-64.3c-10.1-24.6-30.1-36.5-56.4-37.5C224.3,97.7,216.1,97.9,207.9,98z M364.4,97.9
	c35.2,0,63.8,27.7,63.8,62s-28.6,62-63.9,62s-63.8-27.7-63.8-61.9S329.1,97.9,364.4,97.9z M364.4,197.1c19.7,0,35.8-16.7,35.8-37.2
	s-16-37.2-35.9-37.2c-19.7,0-35.9,16.7-35.9,37.2C328.5,180.5,344.6,197.1,364.4,197.1z M203.4,280.3c-1.2-1.5-0.8-3.1-0.8-4.6
	v-42.2c-0.3-2.8-1.3-3.8-3.8-4.4c-0.9-0.2-1.9-0.4-2.8-0.4h-16.5c-4.4,0.1-5.8,1.5-5.8,5.8v112.3c0,4.3,1.2,5.5,5.4,5.6h15.7
	c6.8,0,7.8-0.8,7.8-7.9v-25c0-2.8,0.6-5.3,2.7-7.3c2.9-3,5.8-6,8.9-8.8c2.3-2.2,4-2,6.1,0.5c2,2.4,3.8,4.9,5.7,7.3l28.3,37.1
	c2,2.5,4.5,4.1,7.8,4.1l24.2-0.1c1.3,0,2.8,0.1,3.6-2c-0.6-1-1.3-2.5-2.3-3.7L253.6,303l-13.7-17.9c-2.3-3-2.2-4.6,0.4-7.4
	c0.4-0.4,0.7-0.8,1.1-1.2l24.6-24.4l18.8-18.7c1-1.1,2.8-1.9,2-4.1c-0.6-0.1-1.2-0.4-1.8-0.5c-8-0.1-15.8-0.3-23.8-0.3
	c-4.6,0-8.3,1.8-11.6,5.2c-14,14.7-28.2,29-42.5,43.5C206.1,278.5,205.3,280,203.4,280.3z M300.7,263.9v11.7c0.2,8.1-0.5,16,0.8,24
	c4.9,31.9,33.5,54.8,65.8,52.6c33.9-0.9,60.8-28.9,60.6-62.8c0.2-18,0-35.9,0-53.9v-2.4c-0.3-2.7-1.4-4.1-4.1-4.1
	c-6.5-0.1-12.8-0.1-19.3,0c-2.7,0.1-3.8,1.5-3.9,4.1v4.1c-0.2,18.1-0.3,36.2-0.6,54.4c-0.1,7.8-2.8,15.4-7.5,21.6
	c-11.5,15.4-33.3,18.6-48.8,7.1c-9.9-7.4-15.5-19.1-15.2-31.4c-0.1-18,0.1-35.9,0.3-53.9c0-5-1.2-6.1-6.2-6.2h-16
	c-4.8,0.1-5.8,1.2-5.8,6.1V263.9z"/>
</svg>
