<svg width="1526" height="795" viewBox="0 0 1526 795" fill="none" xmlns="http://www.w3.org/2000/svg">
<path d="M0 62.6633C0 37.3633 15.3 14.4633 38.7 4.76328C62.1 -4.93672 89 0.463282 106.9 18.3633C124.8 36.2633 130.2 63.1633 120.5 86.5633C110.8 109.963 88 125.263 62.6 125.263C54.4 125.263 46.2 123.663 38.6 120.563C31 117.463 24.1 112.863 18.3 106.963C12.5 101.163 7.9 94.2633 4.7 86.6633C1.6 79.0633 0 70.8633 0 62.6633Z" fill="#ED1C24"/>
<path d="M85.7 179.563C93 182.463 99.8 186.763 105.5 192.163C111.3 197.563 116 203.963 119.5 211.063C122.9 218.263 124.9 225.963 125.5 233.763V794.363H0V235.463C0.5 227.463 2.4 219.663 5.7 212.363C9 205.063 13.7 198.463 19.4 192.963C25.2 187.363 31.9 182.963 39.3 179.863C46.7 176.863 54.6 175.163 62.6 175.063C70.5 175.163 78.4 176.663 85.7 179.563ZM883 193.163C911.7 205.163 937.8 222.463 960 244.263C982.1 266.063 999.9 291.763 1012.5 320.263C1025 348.663 1032 379.163 1033.1 410.263V794.363H907.9V411.663C906.4 381.563 893.4 353.163 871.6 332.363C849.7 311.563 820.7 299.863 790.6 299.863C760.4 299.863 731.5 311.563 709.6 332.363C687.8 353.163 674.8 381.563 673.3 411.663V728.363C673.1 736.163 671.4 743.963 668.2 751.063C665.1 758.263 660.6 764.763 655 770.263C649.4 775.763 642.8 780.063 635.5 783.063C628.3 786.063 620.5 787.563 612.7 787.663C604.7 788.063 596.8 786.763 589.3 783.963C581.9 781.063 575.1 776.763 569.4 771.263C563.7 765.663 559.3 758.963 556.3 751.563C553.3 744.263 551.8 736.263 552 728.363V411.963C551.5 396.863 548.1 382.063 541.9 368.363C535.7 354.663 526.9 342.263 515.9 331.963C505 321.663 492.1 313.563 478.1 308.163C464.1 302.763 449.1 300.263 434.1 300.563C419.1 300.063 404.2 302.463 390.2 307.863C376.2 313.163 363.4 321.263 352.7 331.663C341.9 342.063 333.3 354.563 327.4 368.363C321.6 382.163 318.6 396.963 318.6 411.963V794.863H193.4V410.763C194.5 379.763 201.4 349.163 214 320.663C226.5 292.263 244.3 266.363 266.5 244.663C288.7 222.863 314.9 205.563 343.6 193.563C372.3 181.663 403 175.263 434.1 174.763C448 174.763 462 175.763 475.8 178.063C489.5 180.263 503.1 183.663 516.3 188.063C529.6 192.563 542.4 198.163 554.7 204.663C567 211.263 578.8 218.863 589.9 227.363L613.2 245.463L636.6 227.363C647.7 218.863 659.4 211.163 671.8 204.563C684.1 197.863 696.9 192.263 710.2 187.763C723.5 183.263 737.1 179.863 750.9 177.563C764.7 175.363 778.7 174.163 792.7 174.263C823.7 174.763 854.4 181.163 883 193.163ZM1207.5 542.763C1192.5 541.663 1178.4 534.963 1168.1 523.963C1157.8 512.963 1152 498.363 1152 483.263C1152 468.263 1157.8 453.663 1168.1 442.663C1178.4 431.663 1192.5 424.963 1207.5 423.863H1339.7C1356.2 422.763 1371.6 415.463 1382.9 403.463C1394.2 391.363 1400.5 375.463 1400.5 358.863C1400.5 342.363 1394.2 326.463 1382.9 314.363C1371.6 302.363 1356.2 294.963 1339.7 293.963H1093.4V174.263H1343.6C1367.6 174.463 1391.4 179.463 1413.5 188.863C1435.7 198.263 1455.8 211.863 1472.6 229.063C1489.5 246.163 1502.8 266.463 1511.8 288.863C1520.9 311.163 1525.4 334.963 1525.2 359.063C1525.3 368.963 1524.5 378.863 1523 388.663C1521.4 398.463 1519.1 408.163 1516 417.563C1513 427.063 1509.2 436.163 1504.6 445.063C1500.1 453.863 1494.9 462.363 1489.1 470.363L1478.5 484.563L1489.3 499.263C1495.1 507.263 1500.2 515.563 1504.7 524.363C1509.1 533.063 1512.9 542.163 1515.9 551.463C1519 560.763 1521.3 570.263 1522.9 579.963C1524.4 589.663 1525.2 599.463 1525.2 609.263C1525.4 633.263 1520.8 657.063 1511.8 679.363C1502.8 701.663 1489.5 721.963 1472.6 739.063C1455.8 756.163 1435.8 769.863 1413.7 779.263C1391.6 788.763 1367.9 793.763 1343.8 794.063H1093.4V673.563H1339.7C1356.2 672.463 1371.6 665.163 1382.9 653.063C1394.2 640.963 1400.5 625.063 1400.5 608.563C1400.5 591.963 1394.2 576.063 1382.9 564.063C1371.6 551.963 1356.2 544.663 1339.7 543.563L1207.5 542.763Z" fill="#221E20"/>
</svg>
