<?xml version="1.0" encoding="UTF-8"?>
<!DOCTYPE svg PUBLIC "-//W3C//DTD SVG 1.1//EN" "http://www.w3.org/Graphics/SVG/1.1/DTD/svg11.dtd">
<!-- Creator: CorelDRAW X7 -->
<svg xmlns="http://www.w3.org/2000/svg" xml:space="preserve" width="3000px" height="3000px" version="1.1" style="shape-rendering:geometricPrecision; text-rendering:geometricPrecision; image-rendering:optimizeQuality; fill-rule:evenodd; clip-rule:evenodd"
viewBox="0 0 3000 3000"
 xmlns:xlink="http://www.w3.org/1999/xlink">
 <defs>
  <style type="text/css">
   <![CDATA[
    .fil1 {fill:black}
    .fil0 {fill:#FDAF27}
   ]]>
  </style>
 </defs>
 <g id="Layer_x0020_1">
  <metadata id="CorelCorpID_0Corel-Layer"/>
  <g id="_2240377612496">
   <g>
    <path class="fil0" d="M2067 5c-109,-22 -222,30 -280,130 -13,23 -23,49 -29,75 -26,-102 -105,-184 -206,-205 -110,-22 -223,30 -281,130 -13,23 -23,49 -29,75 -26,-102 -105,-184 -206,-205 -110,-22 -223,30 -281,130 -57,100 -48,230 23,320 71,90 191,125 296,86 84,-32 146,-106 168,-194 9,39 27,76 52,108 71,90 191,125 296,86 84,-32 146,-106 168,-194 9,39 27,76 52,108 71,90 191,125 296,86 105,-40 176,-146 176,-263 0,-131 -91,-247 -215,-273z"/>
    <path class="fil0" d="M1216 1358c27,121 96,234 217,269 115,33 243,-20 302,-129 36,-65 31,-139 31,-211 0,-49 0,-98 0,-146 0,-54 0,-107 0,-161 0,-68 -2,-135 31,-197 45,-86 135,-139 229,-135 95,3 181,66 219,157 25,60 21,126 21,190 0,53 0,106 0,159 0,115 7,234 -14,347 -50,262 -223,489 -458,594 -235,104 -513,76 -724,-73 -105,-73 -191,-175 -247,-292 -56,-116 -90,-262 -69,-392 16,-97 90,-176 182,-196 96,-20 196,26 246,114 18,32 26,66 34,102z"/>
   </g>
   <g>
    <path class="fil1" d="M2282 2645c0,105 -82,189 -186,189 -104,0 -185,-83 -185,-189 0,-106 81,-188 185,-188 104,0 186,83 186,188zm-275 1c0,57 38,98 90,98 51,0 89,-42 89,-98 0,-57 -38,-99 -89,-99 -52,0 -90,41 -90,99z"/>
    <path class="fil1" d="M790 2716c18,11 35,22 56,20 20,-1 38,-12 50,-29 10,-16 10,-35 10,-53 0,-32 0,-247 0,-263 0,-10 0,-21 4,-31 11,-31 50,-41 74,-20 13,12 16,28 16,45 0,33 1,268 0,291 -2,42 -20,83 -49,112 -30,30 -70,47 -112,47 -40,0 -82,-16 -108,-48 -10,-14 -16,-29 -12,-46 4,-17 17,-30 32,-34 15,-3 27,2 39,9z"/>
    <path class="fil1" d="M1444 2747l0 0c-15,-10 -24,-26 -24,-44l0 -197c0,-27 -21,-49 -47,-49 -24,0 -44,18 -47,42 -24,-26 -60,-42 -103,-42 -97,0 -167,80 -167,189 0,110 70,189 167,189 1,0 1,0 2,0 0,0 0,0 1,0 46,0 87,-18 116,-49 15,24 40,42 69,47 3,1 5,1 8,1 0,0 1,0 1,0 0,0 0,0 0,0 25,0 46,-21 46,-47 0,-17 -9,-32 -22,-40zm-203 -2c-53,0 -90,-41 -90,-99 0,-58 38,-100 90,-100 51,0 87,41 87,100 0,59 -35,99 -87,99z"/>
    <path class="fil1" d="M1860 2507c0,-29 -20,-50 -46,-50 -25,0 -44,19 -46,45 -24,-28 -61,-45 -106,-45 -97,0 -167,79 -167,189 0,109 70,189 167,189 44,0 80,-16 104,-44l0 12c-1,59 -36,98 -88,98 -22,0 -42,-7 -58,-21 -5,-5 -11,-11 -15,-18 -14,-23 -44,-29 -65,-14 -22,15 -28,46 -13,68 9,15 20,28 32,39 33,29 74,45 119,45 104,0 180,-81 182,-194l0 -21c0,0 0,0 0,0l0 -278 0 0zm-180 238c-53,0 -90,-41 -90,-99 0,-58 38,-100 90,-100 51,0 87,41 87,100 0,59 -35,99 -87,99z"/>
   </g>
  </g>
 </g>
</svg>
