<?xml version="1.0" encoding="UTF-8"?>
<!DOCTYPE svg PUBLIC "-//W3C//DTD SVG 1.1//EN" "http://www.w3.org/Graphics/SVG/1.1/DTD/svg11.dtd">
<!-- Creator: CorelDRAW X7 -->
<svg xmlns="http://www.w3.org/2000/svg" xml:space="preserve" width="3000px" height="3000px" version="1.1" style="shape-rendering:geometricPrecision; text-rendering:geometricPrecision; image-rendering:optimizeQuality; fill-rule:evenodd; clip-rule:evenodd"
viewBox="0 0 3000 3000"
 xmlns:xlink="http://www.w3.org/1999/xlink">
 <defs>
  <style type="text/css">
   <![CDATA[
    .fil3 {fill:none}
    .fil1 {fill:#FEFEFE}
    .fil0 {fill:#EE4E2C}
    .fil2 {fill:#EE4E2C;fill-rule:nonzero}
   ]]>
  </style>
 </defs>
 <g id="Layer_x0020_1">
  <metadata id="CorelCorpID_0Corel-Layer"/>
  <g id="_1380659313536">
   <path class="fil0" d="M235 1082l903 0c60,0 109,49 109,109l0 632c0,60 -49,109 -109,109l-929 0c-60,0 -109,-49 -109,-109l0 -781c0,-28 23,-48 52,-51l832 -107c28,0 52,24 52,52l0 88 -853 0c0,37 11,58 52,58zm507 692l0 0c-76,14 -174,-11 -227,-68 -24,-26 15,-65 39,-39 35,39 99,57 151,56 66,-2 125,-62 88,-129 -52,-93 -181,-67 -247,-140 -53,-60 -28,-152 35,-194 65,-43 178,-41 232,21 23,26 -16,65 -39,38 -44,-49 -146,-43 -185,9 -56,73 28,112 86,130 80,24 168,68 183,160 12,74 -46,142 -116,156z"/>
   <path class="fil1" d="M742 1774l0 0c-76,15 -174,-11 -227,-68 -24,-26 15,-65 39,-39 35,39 99,57 151,56 66,-2 125,-62 88,-129 -52,-93 -181,-67 -247,-140 -53,-60 -28,-152 35,-194 65,-43 178,-41 232,21 23,26 -16,65 -39,38 -44,-49 -146,-43 -185,9 -56,73 28,112 86,130 80,24 168,68 183,160 12,74 -46,142 -116,156z"/>
   <path class="fil2" d="M2296 1043c-32,0 -61,14 -81,35l0 -25c0,-23 -36,-23 -36,0l0 298c0,23 36,23 36,0l0 -132c20,21 49,35 81,35 60,0 109,-47 109,-106 0,-58 -49,-105 -109,-105zm0 173l0 0c-38,0 -69,-30 -69,-68 0,-33 25,-61 58,-66 0,0 1,0 1,0 3,-1 7,-1 10,-1 29,0 53,17 64,40 0,0 0,1 0,1 4,8 6,17 6,26 0,38 -31,68 -70,68zm-269 38c-60,0 -109,-47 -109,-106 0,-58 49,-105 109,-105 59,0 108,47 108,105 0,59 -49,106 -108,106zm0 -173l0 0c-39,0 -70,30 -70,67 0,38 31,68 70,68 38,0 69,-30 69,-68 0,-37 -31,-67 -69,-67zm873 65c-1,-48 -26,-92 -79,-102 -46,-8 -99,15 -119,57 -20,43 -12,102 28,132 43,32 111,22 155,-2 20,-11 2,-41 -19,-30 -28,15 -64,23 -96,12 -23,-7 -36,-27 -40,-49l152 0c9,0 18,-8 18,-18zm-169 -17l0 0c0,-2 1,-3 1,-4 9,-29 39,-46 69,-47 35,-1 54,23 60,51l-130 0zm-74 18c-1,-49 -27,-93 -80,-102 -46,-9 -99,15 -118,56 -21,43 -12,102 28,132 43,33 110,23 154,-1 21,-11 2,-42 -18,-31 -28,15 -65,23 -96,13 -24,-8 -37,-28 -41,-50l152 0c10,0 19,-8 19,-17zm-169 -18l0 0c0,-1 0,-3 1,-4 8,-29 38,-46 69,-46 34,-1 54,22 60,50l-130 0zm-613 -16l0 123c0,23 -37,23 -37,0l0 -121c-1,-24 -21,-35 -22,-35 -26,-12 -73,-6 -101,29l0 127c0,23 -37,23 -37,0l0 -317c0,-23 37,-23 37,0l0 142c44,-30 101,-26 128,-8 0,0 33,18 32,60zm-257 -179c-36,-40 -111,-41 -155,-13 -41,26 -58,86 -23,124 44,47 130,30 165,90 25,43 -15,82 -59,83 -34,0 -77,-11 -101,-36 -16,-16 -42,8 -26,25 36,37 101,53 152,44 47,-9 85,-53 77,-101 -9,-59 -69,-87 -122,-103 -39,-11 -94,-36 -57,-83 26,-33 94,-37 123,-5 16,17 41,-8 26,-25z"/>
   <path class="fil0" d="M2572 2116l-117 0 125 -235 -204 -386 126 0 141 267 141 -267 116 0 -328 621zm-1158 -184l98 0 0 -178 131 0c136,0 246,-96 246,-213 0,-118 -110,-214 -246,-214l-229 0c0,202 0,403 0,605zm98 -276l0 -231 131 0c74,0 134,51 134,115 0,64 -60,116 -134,116l-131 0zm742 -157l86 0 0 429 -86 0 0 -48c-38,32 -87,52 -141,52 -121,0 -219,-98 -219,-219 0,-120 98,-218 219,-218 54,0 103,20 141,52l0 -48zm-141 88c69,0 126,57 126,126 0,70 -57,127 -126,127 -70,0 -127,-57 -127,-127 0,-69 57,-126 127,-126z"/>
  </g>
  <polygon class="fil3" points="0,0 3000,0 3000,3000 0,3000 "/>
 </g>
</svg>
