<svg xmlns="http://www.w3.org/2000/svg" height="800" width="1200" viewBox="-122.40435 -34.26025 1060.8377 205.5615"><path d="M275.66 136.244c-14.711-1.53-24.282-6.619-28.382-15.09-1.58-3.264-2.88-9.513-2.893-13.908-.036-12.855 6.299-21.756 18.647-26.198 7.007-2.52 13.542-3.3 27.654-3.3h12.815V74.13c0-9.368-6.958-15.02-18.373-14.928-6.264.05-10.6 1.187-18.45 4.834-7.122 3.31-8.865 3.423-12.307.797-2.12-1.616-6.35-9.623-6.662-12.604-.158-1.521.232-1.98 3.77-4.425 12.614-8.72 35.087-12.525 50.496-8.55 10.368 2.675 18.083 8.544 22.227 16.906 3.788 7.644 3.94 9.402 3.963 45.78l.02 31.94-1.292.32c-7.88 1.95-39.87 3.226-51.233 2.044zm26.047-19.82l1.794-.359V94.97l-9.902.005c-15.093.007-20.257 1.27-23.226 5.678-1.014 1.504-1.314 2.752-1.312 5.453.003 5.728 2.26 8.232 8.896 9.872 3.015.745 20.605 1.077 23.75.448zm319.58 19.797c-16.226-2.083-27.946-9.683-34.5-22.373-7.886-15.267-7.687-37.817.465-52.892 8.494-15.709 24.713-24.417 43.212-23.202 18.823 1.236 30.464 9.903 35.856 26.696 2.107 6.56 2.843 12.242 2.843 21.95v7.995h-62.73l.332 2.802c.7 5.914 4.522 11.368 10.02 14.298 4.816 2.567 9.239 3.566 15.79 3.566 9.5 0 17.848-2.582 24.436-7.556l3.13-2.362 1.047 1.371c.577.754 1.832 2.953 2.79 4.886 3.118 6.295 1.986 12.429-3.049 16.516-8.495 6.895-24.5 10.248-39.642 8.305zM645.73 76.88c.535-.536-.711-6.791-1.881-9.443-1.536-3.481-4.633-6.554-8.206-8.142-4.197-1.864-12.451-1.867-17.123-.007-5.976 2.381-11.017 8.84-11.753 15.06l-.335 2.826h19.502c10.725 0 19.634-.133 19.796-.295zM22.797 135.94c-9.286-1.105-18.014-4.288-20.783-7.58-1.94-2.305-2.494-5.85-1.594-10.216.93-4.511 3.777-10.766 4.718-10.362l5.317 2.278c8.442 3.617 18.218 5.351 27.34 4.848 9.066-.5 12.906-2.992 12.787-8.3-.108-4.856-3.109-6.61-15.975-9.342-13.858-2.942-19.285-5.245-24.932-10.58-4.975-4.7-7.544-11.165-7.544-18.982 0-8.177 2.648-14.41 8.41-19.8 10.345-9.677 28.562-12.685 50.078-8.27 6.195 1.272 13.319 3.713 13.695 4.694.499 1.3-1.426 9.279-3.029 12.556-.795 1.627-2.15 3.425-3.01 3.996-2.065 1.371-6.426 1.25-12.758-.356-6.816-1.728-18.155-2.196-22.516-.928-4.154 1.208-6.186 3.466-6.186 6.876 0 4.88 2.543 6.444 14.492 8.912 18.878 3.9 27.761 8.903 32.037 18.04 2.984 6.376 3.608 18.153 1.107 25.212-8.86 18.172-31.758 20.251-51.654 17.305zm402.344-.464c-9.614-2.013-15.442-7.312-18.666-16.971-.978-2.93-1.067-6.276-1.242-46.497-.103-23.837-.035-44.172.152-45.189.828-4.497 5.936-7.576 17.339-10.45 3.849-.97 7.143-1.765 7.319-1.765.176 0 .32 5.554.32 12.342v12.342h25.394l-.242 7.319c-.186 5.599-.495 7.841-1.315 9.542-1.628 3.375-3.248 3.804-14.346 3.804h-9.49v23.701c0 23.437.014 23.73 1.291 26.262.937 1.86 2 2.927 3.875 3.895 2.43 1.255 3.085 1.32 11.107 1.116l8.524-.217-.2 6.634c-.164 5.414-.418 7.001-1.38 8.64-1.354 2.304-4.077 4.306-7.077 5.202-3.388 1.012-17.03 1.197-21.363.29zm-219.736-15.888c-.066-4.516-.064-10.656-.064-19.08 0-18.069-.225-29.49-.616-31.313-1.42-6.624-6.088-9.961-14.403-10.299-14.078.519-17.946 9.223-18.275 16.467l.267 59.502c-8.414.225-16.825.104-25.238 0l-.287-33.294c-.282-32.712-.309-33.334-1.523-35.59-2.645-4.915-6.029-6.729-13.176-7.062-7.022-.327-10.925.793-14.198 4.077-4.139 4.152-4.035 3.188-4.237 39.436l-.18 32.433-24.664.31.01-33.45c.011-37.57.064-38.183 3.99-46.146 4.036-8.19 11.655-13.924 22.119-16.645 5.913-1.538 20.681-1.406 26.775.24 6.335 1.71 11.183 4.358 14.8 8.084l3.13 3.224 3.207-3.158c3.875-3.813 8.746-6.498 14.765-8.139 6.489-1.769 20.858-1.767 27.356.004 13.553 3.693 22.062 12.312 24.768 25.086.69 3.26.85 10.128.857 37.09.01 30.666-.061 33.118-.969 33.466-13.982 2.823-24.529 1.691-24.214-15.243zm543.114 15.57c-3.412-.728-5.292-1.75-6.689-3.635-1.173-1.584-1.206-2.306-1.486-32.433-.089-9.513-.178-15.851-.266-25.364.517-9.557-4.354-15.18-16.451-14.92-11.868-.25-16.539 6.296-16.166 11.912l-.124 64.147h-25.258v-32.72c0-29.396.104-33.164 1.025-37.084 2.94-12.52 10.452-20.71 22.573-24.61 9.003-2.895 18.367-3.562 28.525-2.03 16.992 2.56 26.762 10.543 30.63 25.027.863 3.228 1.01 7.818 1.193 37.33l.21 33.65-1.322.383c-2.254.651-13.82.896-16.394.347zm-404.205-.293c.275-8.91.025-24.201.08-33.961.214-31.448.267-32.793 1.481-37.22 3.518-12.825 10.664-20.102 22.886-23.303 5.184-1.358 16.114-2.03 22.805-1.403l4.49.42-.247 6.977c-.19 5.383-.512 7.567-1.409 9.56-1.783 3.962-2.293 4.192-10.15 4.583-7.384.367-8.356.66-10.837 3.269-3.566 3.749-3.552 3.622-3.77 39.075l-.197 32.003c-8.56.092-17.074.026-25.132 0zm124.073-52.668c.19-58.636-.035-55.063 3.99-63.533 2.467-5.188 8.548-11.238 14.112-14.04C493.848.918 498.982-.016 511.877 0c6.156.008 11.942.212 12.857.453l1.664.439-.359 5.852c-.431 7.026-1.567 11.17-3.578 13.06-1.414 1.33-1.952 1.418-10.486 1.716-7.722.269-9.331.489-11.363 1.553-4.503 2.358-7.104 7.282-7.104 13.449v2.766h25.715l.376 3.875c.379 3.895-.397 11.457-1.36 13.255-.283.53-1.083 1.479-1.776 2.107-1.146 1.038-2.236 1.158-12.108 1.33l-10.847.188v75.109h-25.292zm57.396 18.943l.174-31.442c.212-5.229 2.283-10.504 4.71-14.735 4.27-7.364 10.992-12.102 20.531-14.552 5.376-1.38 16.145-2.043 23.392-1.439l5.023.419-.005 4.397c-.006 5.375-.896 11.15-2.068 13.417-1.309 2.53-3.874 3.322-10.76 3.322-2.807 0-4.385.04-5.64.279-3.536.819-6.726 3.941-8.497 7.225-1.259 2.311-1.454 4.285-1.467 6.769l-.144 28.02-.166 32.332h-25.271z" fill="#050708"/><path d="M781.255 101.07h34.774v34.018h-34.774z" fill="#ed1d61" fill-rule="evenodd"/></svg>