<svg width="18" height="24" viewBox="0 0 18 24" fill="none" xmlns="http://www.w3.org/2000/svg">
<g clip-path="url(#clip0_62_3)">
<path fill-rule="evenodd" clip-rule="evenodd" d="M10.1203 2.60838e-05C10.192 0.00118406 10.2841 0.0323179 10.285 0.151619C10.2859 0.270921 10.1587 0.525005 10.1658 1.10809C10.1731 1.71392 10.316 2.12594 11.1868 3.1624L14.6386 7.27084C16.636 9.64822 17.9937 10.7323 18 13.3257C18.0062 15.9191 16.635 17.1863 14.6372 18.7483C12.6394 20.3104 10.0513 22.3383 8.03796 23.9268C7.99226 23.9628 7.93533 24.0011 7.86364 24C7.79196 23.9988 7.69981 23.9677 7.69893 23.8484C7.69807 23.7291 7.83544 23.6119 7.8284 23.0288C7.82109 22.423 7.7605 22.0587 6.88431 21.0265L3.25988 16.7568C1.25011 14.3893 0.00626183 13.3306 2.28882e-05 10.7682C-0.00621796 8.20587 1.37659 6.80669 3.14683 5.47296C5.4755 3.71851 8.1822 1.50637 9.94597 0.0732246C9.99113 0.0365325 10.0486 -0.00113293 10.1203 2.60838e-05Z" fill="url(#paint0_radial_62_3)"/>
<path fill-rule="evenodd" clip-rule="evenodd" d="M13.1096 8.78423V9.83989H10.0393V16.7256C10.0393 17.6924 9.33011 18.1334 8.63546 18.1334C7.94082 18.1334 7.50021 17.9087 7.50021 17.9087C7.50021 17.9087 7.92384 17.5755 7.92567 16.0949C7.92745 14.6589 7.92583 10.1309 7.92567 9.49227C7.9255 8.85361 8.69197 7.70366 9.95316 7.70366L11.9024 7.70367C12.5412 7.70367 13.1096 8.20909 13.1096 8.78423ZM8.60045 7.70366C8.64071 7.70366 8.67311 7.73513 8.67311 7.77424C8.67311 7.81336 8.63272 7.84237 8.60045 7.86576C8.46673 7.9627 8.04997 8.24969 7.85095 8.64235C7.65193 9.035 7.64718 9.39133 7.51788 9.59717C7.38857 9.803 7.17754 9.83989 6.95435 9.83989H5.34969C4.99511 9.83989 4.85577 9.60841 4.85577 9.33385V7.70366H8.60045Z" fill="white"/>
</g>
<defs>
<radialGradient id="paint0_radial_62_3" cx="0" cy="0" r="1" gradientUnits="userSpaceOnUse" gradientTransform="translate(15.3563 18.2369) rotate(-152.497) scale(16.1534 13.5336)">
<stop stop-color="#FFCC00"/>
<stop offset="0.604356" stop-color="#FF0015"/>
<stop offset="1" stop-color="#C6000F"/>
</radialGradient>
<clipPath id="clip0_62_3">
<rect width="18" height="24" fill="white" transform="matrix(-1 0 0 1 18 0)"/>
</clipPath>
</defs>
</svg>
