<svg width="193" height="154" viewBox="0 0 193 154" fill="none" xmlns="http://www.w3.org/2000/svg">
<path d="M115.495 1.62528C117.233 0.529217 119.312 -0.415665 121.391 0.189059C123.243 0.869374 123.885 3.02371 123.81 4.83788C123.81 27.3261 123.81 49.8143 123.81 72.3024C145.088 72.3024 166.367 72.3024 187.646 72.3024C189.347 72.3024 191.388 72.8694 192.068 74.608C192.786 76.6867 191.69 78.7654 190.783 80.5796C185.227 90.8221 179.407 100.951 173.473 111.005C171.734 113.348 169.391 115.502 166.481 116.221C164.062 116.787 161.529 116.787 159.073 116.825C152.005 116.863 144.937 116.825 137.907 116.825C134.846 116.825 131.369 116.939 128.95 119.093C126.947 121.021 127.173 124.12 127.967 126.576C129.668 131.792 132.956 136.252 135.375 141.128C132.881 139.465 130.462 137.65 128.156 135.723C120.975 129.373 114.436 122.343 108.881 114.52C92.2506 91.4646 83.6333 63.2316 82.0837 35.0363C81.8191 28.8379 84.3514 22.0725 89.8695 18.8221C98.4113 13.0772 106.953 7.37016 115.495 1.62528Z" fill="#00C89E"/>
<path d="M0.294733 46.715C1.16402 44.863 3.39395 44.2961 5.28371 44.3339C18.2097 44.3339 31.1357 44.3339 44.0239 44.3339C46.2538 44.3717 48.6349 44.4851 50.638 45.5434C52.679 46.6394 54.2286 48.4536 55.816 50.1166C60.5404 55.4835 65.227 60.8504 69.9514 66.2174C70.216 66.4819 70.7073 67.1245 71.0853 66.5953C73.6932 63.7985 76.1498 60.8504 78.7199 58.0158C80.8743 71.7355 86.1656 84.8504 93.3467 96.6804C102.493 111.647 114.512 124.8 128.156 135.761C130.462 137.688 132.881 139.465 135.375 141.165C136.925 142.866 138.436 144.643 139.91 146.381C141.044 147.704 141.8 149.556 141.082 151.257C140.326 152.92 138.323 153.6 136.622 153.6C123.583 153.6 110.544 153.6 97.4664 153.6C95.2743 153.6 92.9687 153.524 90.9656 152.542C88.8869 151.446 87.2617 149.669 85.6743 147.969C81.0254 142.677 76.3766 137.386 71.7656 132.095C71.4254 131.679 70.9719 131.339 70.5561 131.036C65.6428 136.554 60.805 142.148 55.9294 147.666C54.3042 149.443 52.679 151.295 50.5247 152.466C48.5215 153.524 46.216 153.6 44.0239 153.6C30.9467 153.6 17.9073 153.6 4.83017 153.6C2.9404 153.638 0.710481 152.844 0.143552 150.917C-0.423377 148.913 0.786072 147.061 2.07111 145.663C15.6018 130.091 29.1703 114.52 42.8144 99.0237C29.1703 83.3008 15.4128 67.7292 1.76875 52.0063C0.483709 50.6457 -0.461172 48.6426 0.256938 46.7528L0.294733 46.715Z" fill="#002BBA"/>
</svg>
